<svg width="40" height="40" viewBox="0 0 40 40" fill="none" xmlns="http://www.w3.org/2000/svg">
<path d="M33.7167 17.978C33.1759 16.074 31.9268 14.4924 30.1979 13.5278C29.3093 13.0327 28.3471 12.7332 27.3646 12.6291C27.3189 12.2153 27.2453 11.8015 27.131 11.3928C26.5903 9.48884 25.3412 7.90726 23.6123 6.94259C21.8834 5.97791 19.8828 5.74435 17.9787 6.28508C16.0746 6.82581 14.493 8.07481 13.5283 9.8036C13.0332 10.6921 12.7336 11.6543 12.6295 12.6367C12.2157 12.6824 11.8019 12.756 11.3932 12.8703C9.48906 13.411 7.90738 14.66 6.94264 16.3888C5.97791 18.1176 5.74434 20.118 6.2851 22.022C6.82586 23.926 8.07494 25.5075 9.80385 26.4722C10.6924 26.9672 11.6546 27.2668 12.6371 27.3709C12.6828 27.7847 12.7564 28.1985 12.8707 28.6072C13.4115 30.5112 14.6605 32.0927 16.3895 33.0574C18.1184 34.0221 20.1189 34.2556 22.023 33.7149C23.9271 33.1742 25.5088 31.9252 26.4735 30.1964C26.9686 29.3079 27.2681 28.3457 27.3722 27.3633C27.786 27.3176 28.1999 27.244 28.6086 27.1297C30.5127 26.589 32.0944 25.34 33.0591 23.6112C34.0213 21.8824 34.2549 19.882 33.7167 17.978ZM15.7751 11.0577C16.4047 9.93054 17.4354 9.11311 18.6795 8.76024C19.9234 8.40737 21.2284 8.55969 22.3581 9.18929C23.4879 9.81886 24.3028 10.8495 24.6557 12.0934C24.7243 12.3321 24.7674 12.5733 24.7979 12.817C24.9045 13.6648 24.7903 14.5204 24.4501 15.3124C24.3841 15.4673 24.3104 15.6221 24.2267 15.7719C24.0362 16.1147 23.6859 16.696 23.2645 17.3814C21.5635 16.305 18.1513 14.1548 17.0267 13.5278C16.4453 13.2028 15.8309 12.9693 15.2013 12.8119C15.2749 12.2026 15.4679 11.6086 15.7751 11.0577ZM21.9037 20.0013C21.9037 21.0523 21.0506 21.9052 19.9996 21.9052C18.9486 21.9052 18.0955 21.0523 18.0955 20.0013C18.0955 18.9503 18.9486 18.0973 19.9996 18.0973C21.0506 18.0973 21.9037 18.9503 21.9037 20.0013ZM13.5257 22.974C13.2008 23.5553 12.9672 24.1697 12.8098 24.7993C12.2005 24.7231 11.6064 24.5302 11.0555 24.223C9.92824 23.5934 9.11078 22.5628 8.75787 21.3188C8.40498 20.0749 8.55731 18.77 9.18693 17.6403C9.81656 16.5106 10.8473 15.6958 12.0913 15.3429C12.33 15.2744 12.5711 15.2312 12.8148 15.2007C13.6628 15.0941 14.5184 15.2083 15.3105 15.5485C15.4653 15.6145 15.6202 15.6907 15.77 15.7745C16.1127 15.9648 16.6941 16.3152 17.3796 16.7366C16.3032 18.4375 14.1553 21.852 13.5257 22.974ZM24.2241 28.9423C23.5945 30.0695 22.5638 30.8869 21.3197 31.2398C20.0758 31.5927 18.7708 31.4403 17.6411 30.8107C16.5113 30.1812 15.6963 29.1505 15.3435 27.9066C15.2749 27.6679 15.2317 27.4267 15.2013 27.1831C15.0947 26.3352 15.2089 25.4796 15.5466 24.6876C15.6126 24.5327 15.6862 24.3779 15.7725 24.2281C15.963 23.8854 16.3133 23.304 16.7347 22.6186C18.4357 23.695 21.8478 25.8452 22.9725 26.4722C23.5539 26.7972 24.1683 27.0307 24.7979 27.1881C24.7243 27.7974 24.5313 28.3914 24.2241 28.9423ZM30.8098 22.3571C30.1801 23.4868 29.1494 24.3017 27.9054 24.6546C27.6667 24.7231 27.4256 24.7663 27.1818 24.7967C26.3339 24.9034 25.4783 24.7891 24.6862 24.449C24.5313 24.3829 24.3764 24.3093 24.2267 24.223C23.8839 24.0326 23.3025 23.6823 22.6171 23.2609C23.6935 21.56 25.8439 18.1481 26.4709 17.0235C26.7959 16.4421 27.0295 15.8278 27.1869 15.1982C27.7962 15.2744 28.3903 15.4673 28.9412 15.7745C30.0684 16.4041 30.8859 17.4347 31.2388 18.6786C31.5917 19.9226 31.4393 21.23 30.8098 22.3571Z" fill="white"/>
</svg>
